<?xml version="1.0" encoding="utf-8"?>
<!-- Generator: Adobe Illustrator 21.1.0, SVG Export Plug-In . SVG Version: 6.00 Build 0)  -->
<svg version="1.1" id="Layer_1" xmlns="http://www.w3.org/2000/svg" xmlns:xlink="http://www.w3.org/1999/xlink" x="0px" y="0px"
	 viewBox="0 0 1280 1280" style="enable-background:new 0 0 1280 1280;" xml:space="preserve">
<style type="text/css">
	.st0{fill:#FFFFFF;}
</style>
<g>
	<g>
		<path class="st0" d="M894.4,359c-0.8-3.4-1-6.7-1-10.2c0-0.9,0-1.7-0.1-2.6c0.3-2.3,0.3-2.3,1.3-3.6c1.8-1.4,2.6-1.4,4.8-1.4
			l0,0.3c0.6,0,1.3,0,1.9,0c0.7,0,1.3,0,2,0.1c1,0,1,0,2,0c1.6,0,3.3,0.1,4.9,0.1v1.7c3.3,0.1,6.5,0.2,9.8,0.3
			c1.6,0.1,3.2,0.1,4.8,0.2c1.8,0.1,3.5,0.1,5.3,0.2c4.1,0.1,8.3,0.3,12.3,0.4c16.3,0.6,32.5,0.7,48.7,0.7c0.6,0,1.1,0,1.7,0
			c8.8,0,17.5,0,26.3-0.1c7.7,0,15.4,0,22.9,0c3.8,0,7.6,0,11.4,0c34.8-0.1,34.8-0.1,50.7,2.4c1,0.1,2,0.3,3,0.4
			c7.3,1.1,14.4,2.6,21.6,4.7c0.9,0.3,1.9,0.5,2.8,0.8c6.6,1.9,12.7,4.5,18.9,7.6c0.7,0.3,1.4,0.7,2.2,1c11.3,5.2,25.1,15.2,32,25.7
			v1.7c0.8,0.3,1.7,0.6,2.5,0.8c1.2,1.6,2.3,3.3,3.3,5c0.5,0.7,1,1.4,1.6,2.2c10.9,15.6,16.9,33.3,19.3,52.1
			c0.1,0.7,0.2,1.5,0.3,2.2c2.8,21.5-1.4,40.7-9.6,60.5c-0.4,1-0.4,1-0.8,1.9c-3,7-7.1,12.9-11.7,18.9c-0.4,0.6-0.9,1.1-1.3,1.7
			c-4.9,6.5-10,12.2-16.2,17.5c-1.7,1.5-1.7,1.5-3.2,3.1c-1.9,1.9-4,3.4-6.2,5c-0.8,0.5-1.5,1.1-2.3,1.6c-0.8,0.6-1.6,1.2-2.5,1.8
			c-0.5,0.3-0.9,0.7-1.4,1c-3.5,2.6-7.1,4.6-11,6.5c-0.6,0.3-1.2,0.6-1.8,0.9c-4.1,2-8.3,4-12.5,5.7c-0.9,0.4-1.9,0.8-2.8,1.3
			c-7,2.9-13.9,5.2-21.2,6.8c-1.1,0.3-1.1,0.3-2.2,0.5c-19.4,4.2-39.6,3.6-59.3,4c-4,0.1-8,0.2-12,0.3c-7.8,0.2-15.6,0.3-23.4,0.5
			c0,16.4,0,32.8,0,49.2c0,7.6,0,15.3,0,22.9c0,6.7,0,13.3,0,19.9c0,3.5,0,7,0,10.5c0,3.3,0,6.6,0,9.9c0,1.2,0,2.4,0,3.6
			c-0.8,16.7-0.8,16.7,3.4,32.3c2.3,2.4,2.3,2.4,5,4.2c0.7,0.6,1.4,1.1,2.2,1.7c6.3,3.7,12.7,6.1,19.9,7.1c2.1,0.4,2.1,0.4,4,1.2
			c3.1,1.2,6.1,1.6,9.3,2.1c4.7,0.8,9.4,1.5,14.1,2.5c1.3,0.3,1.3,0.3,2.5,0.5c2.8,1,3.9,1.6,5.5,4.1c0.4,3,0.3,5.9,0.2,9
			c0,0.8,0,1.6,0,2.5c0,2-0.1,4-0.2,6.1c-11.2,0.3-22.2-0.3-33.4-1c-21.4-1.4-42.8-1.7-64.3-1.7c-2.8,0-5.7,0-8.5,0
			c-21.2-0.1-21.2-0.1-42.3,1.6c-3.1,0.4-6.1,0.5-9.3,0.7c-0.6,0-1.2,0.1-1.8,0.1c-1.7,0.1-3.4,0.2-5.2,0.3
			c-1.2,0.1-2.4,0.1-3.6,0.2c-2.9,0.2-5.8,0.3-8.7,0.5c-0.4-1.2-0.4-1.2-0.8-2.5h-1.7c-0.1-2.3-0.2-4.5-0.3-6.8
			c0-0.6-0.1-1.3-0.1-1.9c-0.1-3.2,0.1-5,1.8-7.8c4.1-2.7,8.5-3.4,13.4-4.4c1.9-0.4,3.8-0.8,5.7-1.2c0.9-0.2,1.8-0.4,2.8-0.6
			c13.6-3.1,13.6-3.1,24.5-11.1c4.9-8.4,3.3-19.8,3.3-29.2c0-1.4,0-2.8,0-4.1c0-3.8,0-7.5,0-11.3c0-4.1,0-8.2,0-12.3
			c0-8,0-15.9,0-23.9c0-6.5,0-12.9,0-19.4c0-1.4,0-1.4,0-2.8c0-1.9,0-3.8,0-5.6c0-17.6,0-35.2,0-52.8c0-15.1,0-30.2,0-45.2
			c0-17.5,0-35,0-52.6c0-1.9,0-3.7,0-5.6c0-0.9,0-1.8,0-2.8c0-6.5,0-12.9,0-19.4c0-7.9,0-15.8,0-23.7c0-4,0-8.1,0-12.1
			c0-3.7,0-7.4,0-11.1c0-1.3,0-2.7,0-4c0.3-18.3,0.3-18.3-8.9-33.5c-8.3-6.1-19.3-6.9-29.2-8.1c-9.3-1.2-9.3-1.2-12.9-3.7
			C896.9,361.5,894.3,359.7,894.4,359z M1010.4,373.7c-2,2.5-1.5,5.7-1.4,8.8c0,0.8,0,1.5,0,2.3c0,2.6,0,5.1,0,7.7
			c0,1.8,0,3.7,0,5.5c0,5,0,9.9,0,14.9c0,5.2,0,10.4,0,15.6c0,8.8,0,17.4,0,26.2c0,9,0,18,0,27c0,10.8,0,21.7,0,32.5
			c0,4.1,0,8.3,0,12.4c0,4.9,0,9.8,0,14.6c0,1.8,0,3.6,0,5.4c0,2.4,0,4.9,0,7.3c0,0.7,0,1.4,0,2.2c-0.1,3.8-0.1,3.8,1.9,6.7
			c1.8,0.2,1.8,0.2,3.8,0.2c0.8,0,1.6,0,2.4,0c1.3,0,1.3,0,2.6,0c0.9,0,1.8,0,2.7,0c1.9,0,3.8,0,5.7,0c2.9,0,5.7,0,8.6,0
			c19.8,0,19.8,0,39.3-2.3c0.8-0.1,1.5-0.3,2.3-0.4c7.7-1.5,14.8-4.2,21.9-7.4c0.8-0.4,1.6-0.7,2.4-1.1c7.3-3.4,14.6-7.9,20.1-13.9
			v-1.7c0.5-0.2,1.1-0.4,1.6-0.6c1.9-0.9,1.9-0.9,2.2-2.8c0.1-0.5,0.2-1.1,0.4-1.6c0.8-0.3,1.7-0.6,2.5-0.8c1.9-3.1,1.9-3.1,2.5-6.7
			h1.7c12-33.2,15-71.3,0-104.3c-3-6.1-6.4-12.3-10.8-17.5h-1.7c-0.2-0.5-0.4-0.9-0.6-1.4c-8.2-14.5-28.4-21.2-43.5-25.5
			c-4.8-1.1-9.4-1.6-14.4-1.7c-0.5,0-1.1,0-1.7,0c-1.8,0-3.6-0.1-5.4-0.1c-0.9,0-0.9,0-1.9,0c-3.3-0.1-6.5-0.1-9.8-0.2
			c-3.4-0.1-6.7-0.1-10.1-0.2c-2.6-0.1-5.2-0.1-7.8-0.1c-1.2,0-2.5,0-3.7-0.1c-1.7,0-3.5-0.1-5.2-0.1c-1.5,0-1.5,0-3-0.1
			C1011.9,372.3,1011.9,372.3,1010.4,373.7L1010.4,373.7z"/>
		<path class="st0" d="M574,333.5c4.8,3,6.4,6.5,8.3,11.7c0.5,1.2,0.9,2.4,1.4,3.6c0.8,2,1.5,3.9,2.3,5.9c1.1,2.8,2.2,5.7,3.4,8.4
			c1.3,3,2.4,6.1,3.6,9.2c2,5.4,4.2,10.7,6.5,15.9c0.9,2.1,1.6,4.2,2.3,6.4c1.4,4.4,3.2,8.5,5,12.7c0.3,0.7,0.6,1.5,1,2.2
			c1.5,3.5,3,6.9,4.6,10.3c1.7,3.9,3.2,7.9,4.6,11.9c0.5,1.4,1,2.8,1.5,4.1c0.2,0.6,0.4,1.2,0.7,1.8c0.7,1.7,1.5,3.4,2.3,5.1
			c0.5,1,0.9,2.1,1.3,3.1c0.2,0.6,0.5,1.2,0.7,1.8c0.3,0.6,0.5,1.2,0.8,1.9c0.3,0.6,0.5,1.3,0.8,1.9c1.6,4,3.2,8,4.8,11.9
			c0.5,1.3,1.1,2.7,1.6,4c1.3,3.3,2.6,6.6,3.7,10c1.1,3.5,2.7,6.7,4.4,10c1.3,2.7,2.4,5.4,3.5,8.3c0.8,2,1.6,4.1,2.4,6.1
			c0.3,0.7,0.6,1.5,0.9,2.2c0.9,2.1,1.7,4.2,2.6,6.4c2.6,6.6,5.3,13.1,7.6,19.9c0.7,1.8,1.5,3.6,2.3,5.4c1.6,3.5,2.9,7.1,4.3,10.8
			c1.5,4,3,7.9,5,11.6c2.5,5.1,4.3,10.6,6.3,15.9c2.8,7.5,2.8,7.5,6.2,14.8c1.5,3.2,2.7,6.6,3.9,9.9c1.8,4.7,3.7,9.3,5.7,14
			c3.7,8.6,7,17.4,10.3,26c1.9,4.8,3.8,9.6,5.9,14.3c3.6,8.2,6.7,16.6,9.9,25c1.9,4.9,3.9,9.8,6,14.5c1,2.2,1.9,4.3,2.8,6.5
			c0.3,0.8,0.6,1.5,1,2.3c2.1,5.1,4.1,10.3,6.2,15.4c0.3,0.7,0.6,1.4,0.8,2.1c0.6,1.4,1.1,2.8,1.7,4.3c1.2,3.1,2.5,6.2,3.8,9.3
			c1.1,2.6,1.1,2.6,1.9,5.3c1.1,2.7,1.6,2.7,4.2,3.9c1.4,0.9,2.8,1.8,4.1,2.8c9.4,6,19.6,8.3,30.5,10.3c5.9,1.2,9.3,2.1,12.9,7
			c1,3.1,1,6,0.9,9.3c0,0.6,0,1.2,0,1.9c0,4.6,0,4.6-1,5.5c-7.2,0.4-14.5-0.2-21.7-0.7c-34.7-2.2-69.5-2.5-104.3-1
			c-0.7,0-1.4,0.1-2.2,0.1c-5.6,0.2-11.1,0.5-16.7,0.7c-1.2,0.1-1.2,0.1-2.3,0.1c-2.2,0.1-4.4,0.2-6.6,0.3c-1,0-1,0-2,0.1
			c-3.5,0.2-6.8,0.5-10.3,1.2c-3.2-4.7-2.6-10.3-2.1-15.9c0.6-2,1.3-2.8,3-4.1c4.2-2,8.8-2.8,13.3-3.6c5-1,9.8-2.2,14.8-3.8
			c0.6-0.2,1.3-0.4,1.9-0.6c4-1.3,6.5-2.9,9.3-6.2c0.3-0.6,0.6-1.1,0.8-1.7h1.7c0.6-5.9-0.5-10.7-2.3-16.4c-0.2-0.7-0.4-1.3-0.6-2
			c-1.3-4-2.9-7.8-4.6-11.6c-1.1-2.4-1.9-4.9-2.8-7.4c-1.3-3.7-2.6-7.3-4.2-10.8c-1.7-4-3.2-8.1-4.6-12.3c-2-5.8-4.3-11.4-6.7-17.1
			c-0.6-1.5-1.2-2.9-1.8-4.4c-0.2-0.6-0.5-1.2-0.7-1.8c-1.8-4.7-3.5-9.3-5.3-14c-0.3-1-0.7-1.9-1.1-2.9c-0.7-2-1.4-3.9-2.2-5.9
			c-3-10.3-3-10.3-8.2-19.4c-1.3,0.1-2.5,0.2-3.8,0.4c-6.3,0.6-12.6,0.6-18.9,0.6c-1.3,0-2.7,0-4,0c-3.6,0-7.3,0-10.9,0
			c-3.8,0-7.6,0-11.4,0c-7.2,0-14.4,0-21.6,0c-8.2,0-16.4,0-24.5,0c-16.2,0-32.3,0-48.5,0c-1.3,0-2.7,0-4,0
			c-0.2,0.5-0.3,0.9-0.5,1.4c-2,5.6-4.1,11.2-6.2,16.8c-0.3,0.8-0.6,1.5-0.9,2.3c-1.6,4.1-3.2,8.1-4.9,12.1
			c-3.3,8-6.4,16.1-9.6,24.2c-3.9,9.9-7.8,19.8-11.8,29.6c-0.4,1-0.8,2-1.2,3c-0.8,2-1.6,3.9-2.4,5.9c-5.4,11.8-5.4,11.8-7.6,24.4
			c0,0.6,0,1.3,0,1.9c0.1,1.9,0.3,3.4,0.9,5.2c2,0.9,2,0.9,4.2,1.7c0.8,0.6,0.8,0.6,1.6,1.2c4.3,3.1,9.5,4.5,14.6,5.9
			c0.6,0.2,1.3,0.4,2,0.6c3.3,0.9,6.6,1.7,10.1,2.2c0.6,0.1,1.3,0.2,1.9,0.3c1.2,0.2,2.4,0.3,3.6,0.4c3.2,0.4,4.7,1.1,7.1,3.3
			c2,3.4,2.2,5.3,2,9.3c0,1.6,0,1.6-0.1,3.3c-0.2,2.8-0.2,2.8-1.1,5.3c-3.3-0.1-6.6-0.2-9.8-0.3c-1.1,0-2.1-0.1-3.2-0.1
			c-6.5-0.2-13-0.5-19.5-0.8c-29.1-1.5-58.7-3-87.6,0.7c-9.2,1.2-9.2,1.2-13.1,0.6c-2.5-2.5-2-5.2-2-8.5c0-0.6,0-1.3-0.1-1.9
			c0-3.2,0.3-5.3,1.5-8.3c3.2-3.1,6.2-3.2,10.5-3.8c1.5-0.3,3-0.6,4.5-0.9c0.8-0.2,1.5-0.3,2.3-0.5c7.6-1.7,14.7-3.4,21.6-6.9
			c0.6-0.3,1.1-0.5,1.7-0.8c11.1-5.5,14.8-18.9,18.9-29.7c1.8-4.7,3.8-9.4,5.8-14.2c0.4-1,0.9-2.1,1.3-3.1c0.9-2.2,1.8-4.3,2.7-6.5
			c2-4.8,4-9.7,6-14.4c0.6-1.5,1.3-3.1,1.9-4.6c1.8-4.2,3.5-8.4,5.2-12.7c2.1-5.3,4.3-10.5,6.8-15.6c1.8-3.9,3.4-7.8,4.8-11.8
			c4.2-11.6,9.1-23,14.2-34.2c2.1-4.5,3.9-9.2,5.6-13.9c1.7-4.3,3.5-8.5,5.2-12.8c0.7-1.6,1.3-3.2,2-4.7c0.5-1.2,0.5-1.2,1-2.5
			c0.9-2.1,1.7-4.2,2.6-6.3c0.3-0.6,0.5-1.2,0.8-1.9c0.5-1.2,1-2.4,1.5-3.6c1.2-2.8,2.4-5.5,3.7-8.3c2.3-4.5,4-9.1,5.9-13.8
			c2.4-6.2,4.9-12.3,7.5-18.4c0.9-2.1,1.7-4.3,2.6-6.4c1.5-3.8,3.1-7.6,4.7-11.3c0.9-2.1,1.8-4.3,2.6-6.4c0.3-0.6,0.5-1.2,0.8-1.9
			c0.5-1.2,1-2.4,1.5-3.6c1.4-3.5,3-6.9,4.8-10.3c0.8-1.6,1.4-3.3,1.9-5c1.5-4.8,3.5-9.3,5.5-14c0.7-1.8,1.5-3.5,2.2-5.3
			c1.1-2.7,2.2-5.3,3.4-8c1.1-2.5,1.9-5,2.8-7.6h1.7c0.2-1,0.3-2,0.5-3c1.3-5.7,3.8-10.8,6.2-16.2c2.1-4.8,4.1-9.7,6-14.6
			c2.2-5.5,4.5-10.8,7-16.1c1.6-3.6,3-7.2,4.3-10.8c1.3-3.3,2.8-6.5,4.3-9.8c1.4-3.1,2.6-6.2,3.7-9.3c6.1-16.3,6.1-16.3,12.4-19.5
			C569.3,333.5,571.1,333.2,574,333.5L574,333.5z M552.3,427.8c-3.1,3.7-4.3,7.8-5.8,12.3c-1.1,3.3-2.4,6.5-3.8,9.7
			c-3.7,8.8-7.3,17.6-10.4,26.6c-1.2,3.3-2.5,6.5-3.8,9.7c-1.7,4.2-3.4,8.4-5,12.7c-1.9,4.9-3.9,9.8-5.9,14.7
			c-1.7,4.1-3.3,8.2-4.9,12.3c-1.2,3.2-2.5,6.4-3.9,9.5c-1.7,4-3.2,8-4.7,12.1c-0.4,1-0.7,1.9-1.1,2.9c-2.4,6.3-4.8,12.7-7.2,19
			c-1.1,2.9-2.3,5.7-3.5,8.6c-0.8,1.9-1.5,3.8-2.3,5.7c-0.4,0.9-0.7,1.9-1.1,2.8c-1,2.3-1,2.3,0.1,4c14.9,0,30,0,44.9,0
			c7,0,13.9,0,20.9,0c6.1,0,12.1,0,18.2,0c3.2,0,6.4,0,9.6,0c3,0,6,0,9.1,0c1.6,0,3.3,0,4.9,0c5.9,0,11.8-0.3,17.7-0.9
			c-0.8-3.1-1.7-6.2-2.8-9.3c-0.2-0.6-0.4-1.1-0.6-1.7c-1.3-3.7-2.6-7.3-4.1-10.9c-1.4-3.5-2.7-7-4-10.6c-1.1-3-2.3-6-3.5-9
			c-1.9-4.7-3.7-9.4-5.4-14.2c-0.3-0.9-0.7-1.8-1-2.7c-2.1-5.6-4.1-11.2-6.1-16.9c-0.7-1.8-1.4-3.5-2.1-5.2
			c-1.3-3.1-2.4-6.2-3.5-9.4c-2.6-7.6-5.7-15.1-8.7-22.6c-1.3-3.3-2.6-6.6-3.8-9.9c-1.1-2.8-2.2-5.6-3.3-8.4
			c-1.9-4.9-3.8-9.8-5.7-14.8c-0.3-0.7-0.5-1.4-0.8-2.1c-0.5-1.7-0.5-1.7-0.5-4.2h-1.7c-0.1-0.7-0.2-1.4-0.3-2.2
			c-0.5-2.7-1.3-5.2-2.2-7.8L552.3,427.8L552.3,427.8z"/>
		<path class="st0" d="M103.5,354.5c0-2.6-0.1-5.2-0.1-7.8c0-0.7,0-1.5,0-2.3c0-0.7,0-1.4,0-2.2c0-0.7,0-1.3,0-2
			c0.4-3.4,1.9-3.3,5.1-3.5l-0.1,0c1.3,0,2.6,0,3.9,0c1,0,1,0,2,0c4.9,0,4.9,0,6.8,1c6.6,1,13.3,1.1,19.9,1.3
			c1.6,0.1,1.6,0.1,3.3,0.1c2.3,0.1,4.6,0.1,7,0.2c2.9,0.1,5.8,0.2,8.8,0.3c17.7,0.6,35.3,0.8,53.1,0.3c0.7,0,1.3,0,2-0.1
			c11-0.3,22-0.8,33-1.6c16.9-1.2,16.9-1.2,19.9,0.3c1.1,5.3,1.8,11.4-0.1,16.6c-3.6,3.8-8.9,4.7-13.9,5.5
			c-16.9,2.7-16.9,2.7-30.2,12.1c-0.9,1.4-1.7,2.8-2.5,4.2c-0.6,0.8-1.1,1.7-1.7,2.5c-0.3,2.4-0.4,4.8-0.5,7.2
			c0,0.8-0.1,1.5-0.1,2.3c-0.4,11.1-0.3,22.1-0.3,33.2c0,3.4,0,6.7,0,10.1c0,5.8,0,11.6,0,17.4c0,8.4,0,16.9,0,25.4
			c0,13.8,0,27.5,0,41.3c0,0.8,0,1.6,0,2.5c0,6.7,0,13.3,0,19.9c0,5.8,0,11.6,0,17.4c0,0.8,0,1.6,0,2.5c0,13.7,0,27.4,0,41.1
			c0,7.7,0,15.3,0,22.9c0.1,55.2,0.1,55.2-0.4,77.7c0,0.7,0,1.5,0,2.2c-0.5,23.3-1.3,47.7-6,70.5c-0.2,1-0.2,1-0.4,2
			c-4.2,19.6-11.6,37.6-21.5,55h-1.7c-0.1,0.9-0.1,0.9-0.2,1.8c-0.7,2.8-1.8,4.5-3.5,6.8c-0.5,0.7-1,1.5-1.6,2.2
			c-0.5,0.6-0.9,1.1-1.4,1.7h-1.7c-0.2,0.6-0.4,1.2-0.6,1.8c-2,4.4-5.5,7.9-8.7,11.4c-1.9,2.1-3.7,4.3-5.5,6.5c-1.1,1-1.1,1-2.7,1
			c-0.2,0.5-0.4,0.9-0.6,1.4c-1.9,3.3-4.1,5.7-7.8,6.9c-0.3,0.6-0.5,1.1-0.8,1.7c-0.3,0.6-0.6,1.1-0.9,1.7c-1.1,0.3-2.2,0.6-3.3,0.8
			c-0.4,0.8-0.4,0.8-0.7,1.5c-1.1,2.2-2.3,3-4.3,4.4c-2.3,1.6-3.4,2.5-5,5c-0.9,0.5-0.9,0.5-1.8,1.1c-3.6,2.2-6.6,5.1-9.8,7.9
			l-1.5,1.3l-1.4,1.2c-1.6,1.1-2.9,1.4-4.7,1.8c-0.3,0.5-0.5,1-0.8,1.6c-1.2,2.4-2.7,2.9-5.1,4.3c-1.1,0.8-2.2,1.6-3.2,2.4
			c-13.4,10.2-13.4,10.2-17.4,10c-1.9-0.7-1.9-0.7-4.4-2.4v-1.7h-1.7c-2.1-4-3-7-2.3-11.4c1.6-4.6,5.4-7.7,9-10.7
			c2.6-2.2,4.3-4.5,6.3-7.2c1.2-1.5,1.2-1.5,3.2-3.1c2.7-2.1,4.5-4.6,6.6-7.4c4.3-5.7,4.3-5.7,6.9-8.1c1.5-1.6,2.5-3.5,3.5-5.4
			c1.2-2,2.5-3.8,3.8-5.6c8.7-12.3,8.7-12.3,13.9-26.1h1.7c0.2-1.1,0.4-2.1,0.6-3.2c0.6-2.9,1.5-5.5,2.6-8.2
			c4.8-11.7,7.6-24.5,9.3-37c0.1-0.8,0.2-1.6,0.3-2.4c1.7-12.9,2.4-25.5,2.7-38.5c0-1.2,0-1.2,0.1-2.3c0.3-16.2,0.4-32.4,0.4-48.6
			c0-4,0-8,0-11.9c0-7.7,0-15.4,0-23.2c0-6.3,0-12.6,0-18.9c0-1.4,0-1.4,0-2.7c0-1.8,0-3.7,0-5.5c0-17.1,0-34.1,0-51.2
			c0-14.6,0-29.3,0-43.9c0-17,0-34.1,0-51.2c0-1.8,0-3.6,0-5.5c0-0.9,0-1.8,0-2.7c0-6.3,0-12.6,0-18.9c0-7.6,0-15.3,0-22.9
			c0-3.9,0-7.8,0-11.7c0-3.6,0-7.1,0-10.7c0-1.3,0-2.6,0-3.9c0.1-15.4,0.1-15.4-4.3-29.9c-0.3-0.7-0.5-1.5-0.8-2.3
			c-0.7-2.1-0.7-2.1-2.6-2.8c-0.8-0.3-1.6-0.5-2.4-0.8c-1.1-0.5-2.1-1.1-3.1-1.6c-7.6-3.8-15.4-5-23.8-6.2c-5.3-0.8-9.3-2-14-4.7
			C105.2,356.2,103.8,355.5,103.5,354.5z"/>
		<path class="st0" d="M269.6,881.1c-0.3-1.4-0.7-2.6-1-4.1c-4.9,4.4-6.2,11.8-7.8,18.1c-0.6,2-0.7,1.8-1.7,4.6
			c-0.7,2.5-1.9,5-2.5,7.6c-1.4,3.9-2.2,7.1-3.8,10.7c-0.4,1.1-0.8,2.2-1.2,3.3c-0.2,0.6-0.4,1.3-0.6,1.9c-0.2,0.7-0.5,1.5-0.7,2.3
			c-2.3,7-4.6,14-7.5,20.9h-2.5c-3.2-3.7-4.4-7.8-5.8-12.4c-0.8-2.3-1.7-4.5-2.7-6.8c-1.7-4-3-8.2-4.3-12.3
			c-1.3-3.9-2.8-7.4-4.7-11.1c-1-2.6-1.9-5.2-2.8-7.8c-0.5-1.5-1-3-1.5-4.5c-0.5-1.5-1-3-1.5-4.5c-3.5-10.2-3.5-10.2-7.6-20
			c-1.3-3-2.3-6.1-3.2-9.2c-0.3-0.8-0.6-1.7-0.8-2.5c-1.6-0.6-1.6-0.6-3.6-0.9c-2.7-0.5-4.8-1.1-7.3-2.5c0.6-1.1,1.1-2.2,1.7-3.3h35
			c0.6,1.1,1.1,2.2,1.7,3.3c-3.2,2.1-6.3,3.2-10,4.2c1,9.5,4.7,18.6,8.3,27.5c1.2,3,2.2,5.9,3.1,9c2.7,8.9,6.1,17.5,9.4,26.2h2.5
			c0.1-0.6,0.3-1.3,0.4-1.9c0.2-0.9,0.4-1.7,0.6-2.6c0.2-0.8,0.4-1.7,0.6-2.6c0.7-2.3,1.5-4.3,2.5-6.5c1.9-4.1,3.3-8.3,4.7-12.7
			c1.7-5.2,3.5-10.3,5.5-15.4c0.8-2,1.5-4.1,2.1-6.2c0.9-3,1.8-6,2.8-9c0.2-0.6,0.4-1.3,0.5-2c1.3-4.5,2.8-8.3,5.3-12.3l0,0.1
			c2.8,1.9,2.9,2.3,3.7,5.4c0.7,2.9,1.7,5.6,2.8,8.3c2.1,5.2,3.9,10.4,5.7,15.7c0.5,1.6,1.1,3.2,1.6,4.8c1.5,4.5,3.1,8.9,4.6,13.4
			c0.8,2.2,1.5,4.4,2.3,6.6c0.5,1.6,1.1,3.1,1.6,4.7c0.3,1,0.7,1.9,1,2.9c0.3,0.8,0.6,1.7,0.9,2.5c1,2.6,2.2,5,3.4,7.4h1.7
			c0.2-1.1,0.4-2.2,0.7-3.3c0.9-4.2,2.3-8.1,3.9-12.1c1.8-4.8,3.6-9.6,5-14.5c1.3-4.6,3-9.2,4.6-13.7c1.3-3.5,2.5-7,3.7-10.5
			c0.3-0.9,0.6-1.7,0.9-2.6c0.6-2.8,0.3-4.8-0.3-7.5c-0.6-0.1-1.2-0.3-1.8-0.4c-0.8-0.2-1.5-0.4-2.3-0.6c-0.8-0.2-1.5-0.4-2.3-0.6
			c-1.9-0.9-1.9-0.9-2.6-2.6c-0.1-0.5-0.1-1-0.2-1.6c2.5-1.3,4.8-0.9,7.6-0.8c0.6,0,1.2,0,1.8,0.1c1.2,0,2.5,0.1,3.7,0.1
			c1.9,0.1,3.8,0.1,5.7,0.2c1.2,0,2.4,0.1,3.6,0.1c1.1,0,2.2,0.1,3.3,0.1c2.6,0.2,2.6,0.2,4.3,1c-0.3,1.1-0.6,2.2-0.8,3.3h-3.3
			c-4.1,1.6-6.5,3.5-8.3,7.5c-1.2,3.3-2.3,6.7-3.3,10c-0.3,0.8-0.5,1.6-0.8,2.4c-0.6,1.9-1.3,3.9-1.9,5.8c-0.2,0.6-0.3,1.1-0.5,1.7
			c-0.4,1.2-0.7,2.3-1,3.5c-1.1,3.5-2.4,6.7-4.1,9.9c-0.4,1.1-0.8,2.2-1.2,3.4c-0.3,1-0.3,1-0.6,1.9c-0.5,1.6-1,3.2-1.5,4.8
			c-1.5,4.9-3.1,9.7-5,14.4c-1.4,3.5-2.6,7.1-3.9,10.7c-2,5.5-4.1,11-6.1,16.5c-2.5,0-2.5,0-4.2-0.8c-0.8-1.7-0.8-1.7-1.7-4.2
			c-0.4-1-0.8-2-1.2-3c-3.9-10.5-7.6-21.2-11.3-31.8c-0.5-1.5-1.1-3-1.6-4.5c-0.5-1.4-1-2.8-1.5-4.2c-0.2-0.6-0.5-1.3-0.7-2
			c-0.3-0.9-0.3-0.9-0.7-1.9c-0.7-1.9-1.4-3.7-2.1-5.6c-0.3-1-0.7-2-1-3L269.6,881.1z"/>
		<path class="st0" d="M468,848.7c0.9,0.1,1.8,0.1,2.7,0.2c9.8,0.6,19.4,0.7,29.2,0.7c30.8-0.2,30.8-0.2,42.1,5.7
			c0.5,0.3,1.1,0.6,1.6,0.8c3.4,1.9,6,3.9,8.6,6.8c0.4,0.5,0.9,0.9,1.4,1.4c8.6,9.5,12.8,23.1,12.3,35.8
			c-1.2,13.7-6.4,26.1-16.9,35.5c-8.3,5.2-16.8,8.4-26.5,9.3c-0.8,0.1-1.6,0.1-2.4,0.2c-6.8,0.6-13.6,0.6-20.4,0.5
			c-10.3-0.1-20.4,0.4-30.6,0.8c-0.6-1.1-1.1-2.2-1.7-3.3c1.6-0.6,3.3-1.1,4.9-1.7c0.9-0.3,1.8-0.6,2.8-0.9c2.4-0.7,2.4-0.7,4-0.7
			c0-9.9,0.1-19.8,0.1-29.7c0-4.6,0-9.2,0-13.8c0-4.4,0-8.8,0-13.4c0-1.7,0-3.4,0-5.1c0-2.4,0-4.7,0-7.1c0-0.7,0-1.4,0-2.1
			c0-4.4-0.5-8.2-1.9-12.3c-1.9-1.3-1.9-1.3-4.2-1.6c-4.1-0.8-4.1-0.8-5.8-2.6C467.5,850.3,467.5,850.3,468,848.7L468,848.7z
			 M544.8,926.3c1.2-2.1,1.2-2.1,2.2-4.7c0.4-0.9,0.7-1.7,1.1-2.6c4-12,4-30.5-1.6-42c-0.3-0.7-0.7-1.5-1-2.2
			c-3.9-7.2-9.4-13.8-17.2-16.6c-0.7-0.2-1.5-0.4-2.2-0.7c-2-0.6-2-0.6-3.6-1.4c-5.8-2.7-13.5-1.8-19.8-1.7c-1.4,0-1.4,0-2.8,0
			c-2.3,0-4.5,0-6.8,0l0,0c-1.1,3.3-1,6.5-0.9,9.9c0,0.7,0,1.3,0,2c0,2.2,0,4.4,0,6.6c0,1.5,0,3,0,4.6c0,3.2,0,6.4,0,9.6
			c0,4.1,0,8.2,0,12.3c0,3.2,0,6.3,0,9.4c0,1.5,0,3,0,4.5c0,6.5,0,13.1,0.3,19.6c0,0.8,0.1,1.5,0.1,2.3c0.4,2,0.4,2,2,3.4
			c3.9,2.2,8.8,1.4,13.2,1.4c1.8,0,3.7,0,5.5,0.1c10.8,0.1,19.5-2.2,27.7-9.8C541,930.3,544,927.6,544.8,926.3z"/>
		<path class="st0" d="M594.5,848.7c0.9,0.1,1.8,0.1,2.7,0.2c9.8,0.6,19.4,0.7,29.2,0.7c30.8-0.2,30.8-0.2,42.1,5.7
			c0.5,0.3,1.1,0.6,1.6,0.8c3.4,1.9,6,3.9,8.6,6.8c0.4,0.5,0.9,0.9,1.4,1.4c8.6,9.5,12.8,23.1,12.3,35.8
			c-1.2,13.7-6.4,26.1-16.9,35.5c-8.3,5.2-16.8,8.4-26.5,9.3c-0.8,0.1-1.6,0.1-2.4,0.2c-6.8,0.6-13.6,0.6-20.4,0.5
			c-10.3-0.1-20.4,0.4-30.6,0.8c-0.6-1.1-1.1-2.2-1.7-3.3c1.6-0.6,3.3-1.1,4.9-1.7c0.9-0.3,1.8-0.6,2.8-0.9c2.4-0.7,2.4-0.7,4-0.7
			c0-9.9,0.1-19.8,0.1-29.7c0-4.6,0-9.2,0-13.8c0-4.4,0-8.8,0-13.4c0-1.7,0-3.4,0-5.1c0-2.4,0-4.7,0-7.1c0-0.7,0-1.4,0-2.1
			c0-4.4-0.5-8.2-1.9-12.3c-1.9-1.3-1.9-1.3-4.2-1.6c-4.1-0.8-4.1-0.8-5.8-2.6C594,850.3,594,850.3,594.5,848.7L594.5,848.7z
			 M671.2,926.3c1.2-2.1,1.2-2.1,2.2-4.7c0.4-0.9,0.7-1.7,1.1-2.6c4-12,4-30.5-1.6-42c-0.3-0.7-0.7-1.5-1-2.2
			c-3.9-7.2-9.4-13.8-17.2-16.6c-0.7-0.2-1.5-0.4-2.2-0.7c-2-0.6-2-0.6-3.6-1.4c-5.8-2.7-13.5-1.8-19.8-1.7c-1.4,0-1.4,0-2.8,0
			c-2.3,0-4.5,0-6.8,0l0,0c-1.1,3.3-1,6.5-0.9,9.9c0,0.7,0,1.3,0,2c0,2.2,0,4.4,0,6.6c0,1.5,0,3,0,4.6c0,3.2,0,6.4,0,9.6
			c0,4.1,0,8.2,0,12.3c0,3.2,0,6.3,0,9.4c0,1.5,0,3,0,4.5c0,6.5,0,13.1,0.3,19.6c0,0.8,0.1,1.5,0.1,2.3c0.4,2,0.4,2,2,3.4
			c3.9,2.2,8.8,1.4,13.2,1.4c1.8,0,3.7,0,5.5,0.1c10.8,0.1,19.5-2.2,27.7-9.8C667.5,930.3,670.4,927.6,671.2,926.3z"/>
		<path class="st0" d="M958.7,847.9c1,0,2.1,0,3.2,0c8.6,0,16.8,0.9,25,3.5l1.5,0.6l0.2,1.1c1.8,7.2,2.2,14.4,2.5,21.7h-2.5l-1.3,0
			l-0.4-1.6c-0.3-0.7-0.6-1.4-1-2c-4-8.3-7.8-13-16.6-16.4c-3.3-0.5-6.5-0.5-9.8-0.4c-1.3,0-1.3,0-2.6,0c-4.1,0.1-7.2,0.4-10.9,2
			c-0.6,0.2-1.3,0.4-1.9,0.6c-6.7,2.2-13,6.3-16.5,12.7c-6.8,15-6.9,32.1-1.6,47.6c1.3,3.2,2.6,5.9,5,8.3c0.3,0.4,0.6,0.8,1,1.2
			c5.6,7.1,13.1,12.1,22.2,13.3c2.5,0.2,4.9,0.3,7.4,0.3c0.8,0,1.7,0.1,2.5,0.1c4.1,0.1,7.9,0.2,11.9-0.7c0.2-2.9,0.3-5.8,0.5-8.7
			c0.1-1.2,0.1-1.2,0.1-2.4c0.7-9.2,0.7-9.2-1.9-17.6c-3-1.9-6.2-2.8-9.6-3.8v-3.3h34.2c0.3,1.4,0.6,2.8,0.8,4.2
			c-0.5,0.1-1,0.2-1.6,0.3c-1,0.3-1,0.3-2.1,0.5c-0.7,0.2-1.4,0.3-2.1,0.5c-2.3,1.4-2.5,2.8-3.2,5.3c-0.5,2.7-0.5,5.5-0.5,8.3
			c0,0.9,0,0.9,0,1.8c0,1.9,0,3.8,0.1,5.7c0,1.3,0,2.6,0,3.9c0,3.2,0,6.3,0.1,9.5c-11.2,3.2-22,3.4-33.5,3.5c-1.5,0-1.5,0-3,0
			c-14.4,0-26.4-4.3-36.8-14.4c-10.3-12.9-13-27.1-11.4-43.2c1.4-8.2,5.1-15.9,9.8-22.7c0.5-0.8,0.9-1.6,1.4-2.4
			c2.3-3.1,4.7-5,7.8-7.2c0.6-0.4,1.1-0.8,1.7-1.2C937.2,849.1,946.2,847.9,958.7,847.9L958.7,847.9z"/>
		<path class="st0" d="M859.3,917.2c1.4,1.3,1.4,1.3,2.5,2.5c0.7-12.9,0.9-25.8,1-38.7c0-1.6,0-3.1,0-4.7c0-2.2,0-4.5,0-6.7
			c0-0.7,0-1.3,0-2c0-4.1-0.5-7.4-1.9-11.3c-1.5-1.2-1.5-1.2-3.2-1.5c-0.6-0.2-1.2-0.3-1.8-0.5c-0.5-0.2-1.1-0.3-1.7-0.5
			c-1.1-0.5-2.2-1.1-3.3-1.7c0.3-1.1,0.6-2.2,0.8-3.3h26.7c0.4,2.1,0.4,2.1,0.8,4.2c-0.5,0.2-1.1,0.3-1.6,0.5
			c-0.7,0.2-1.4,0.4-2.1,0.7c-0.7,0.2-1.4,0.4-2.1,0.6c-1.9,0.6-1.9,0.6-2.6,2.4c-0.2,1.8-0.3,3.5-0.4,5.3c-0.3,5.2-0.3,5.2-0.8,7.4
			c-0.6,3.3-0.5,6.4-0.5,9.8c0,0.7,0,1.5,0,2.2c0,2.4,0,4.8,0,7.2c0,1.7,0,3.4,0,5c0,4.4,0,8.8,0,13.3c0,4.5,0,9,0,13.5
			c0,8.8,0,17.7,0,26.5c-5.2-1-7.7-5.2-10.8-9.2c-0.8-1-0.8-1-1.6-2l-26-33.9c-1.1-1.4-2.1-2.9-3.2-4.3c-2.6-3.6-5.2-7.1-8-10.6
			c-1.3-1.7-2.6-3.4-3.9-5.1c-5.8-7.9-5.8-7.9-12.5-15c0,0.7,0,1.3,0.1,2l-0.1,61.4c0.2,1.4,0.3,2.8,0.5,4.3
			c0.1,1.1,0.1,1.1,0.2,2.3c0.1,0.6,0.1,1.2,0.2,1.8c0.5,0.1,1,0.3,1.5,0.4c3.9,1.2,6.8,2.1,9.3,5.4v0.8c-3.6,0.7-7,0.9-10.6,0.9
			c-1,0-2.1,0-3.1,0c-1.1,0-2.1,0-3.2,0c-1.1,0-2.2,0-3.3,0c-2.7,0-5.4,0-8.1,0c-0.3-1.1-0.6-2.2-0.8-3.3c1.1-0.4,2.1-0.8,3.2-1.2
			c0.6-0.2,1.2-0.4,1.8-0.7c1.4-0.5,2.8-1,4.2-1.5c1-8.8,1-17.4,1-26.2c0-1.5,0-3.1,0-4.6c0-3.2,0-6.4,0-9.7c0-4.1,0-8.3,0-12.3
			c0-3.2,0-6.4,0-9.6c0-1.5,0-3,0-4.6c0-2.1,0-4.2,0-6.4c0-0.9,0-0.9,0-1.9c0-3.4-0.3-6-1.9-9c-2-1.2-2-1.2-4.3-1.9
			c-0.8-0.3-1.5-0.5-2.3-0.8c-0.6-0.2-1.2-0.4-1.8-0.6c0.3-1.1,0.6-2.2,0.8-3.3l0-0.1c5.3-0.1,10.6-0.1,15.9,0.2
			c0.7,0,1.4,0.1,2.1,0.1c5.6,1.4,8.4,6.7,11.5,11.1c1,1.4,1.9,2.7,2.9,4.1c0.5,0.6,0.9,1.3,1.4,2c2,2.7,4.1,5.4,6.2,8l4.6,6
			c2.2,3.3,4.4,6.5,6.9,9.7c0.4,0.5,0.7,0.9,1.1,1.4c0.7,0.9,1.5,1.9,2.2,2.8c4.5,5.8,8.9,11.5,13.3,17.4c0.5,0.7,1.1,1.5,1.7,2.2
			L859.3,917.2z"/>
		<path class="st0" d="M1028.7,916.3l3.3,0.8c2.6,3.4,4.2,6.9,5.8,10.8c2.9,5.3,7.7,9.4,13.4,11.7c7.6,1.1,15.7,1.9,22.4-2.3
			c3.8-3.9,5-7.2,5.3-12.4c-0.1-4.8-1.4-8.7-4.5-12.3c-2.5-2.2-4.8-3.5-7.8-5c-0.8-0.4-0.8-0.4-1.6-0.8c-3.2-1.5-6.5-2.9-9.8-4.3
			c-9.4-3.9-17-8.3-22.4-17.2c-3.1-7.9-2.1-15.5,0.7-23.3c0.3-0.6,0.6-1.1,0.8-1.7l0.9-1.9c3.6-5.2,7-6.8,12-8.9
			c11.5-4.7,26.9-2.1,38,2.5l0.1,0l1.5,0.7l0.2,0.9c0.3,2.4,0.6,4.9,0.8,7.3c0.1,0.7,0.2,1.4,0.2,2.1c0.1,0.7,0.2,1.3,0.2,2
			c0.1,0.6,0.1,1.2,0.2,1.9c0.1,1.7,0.2,3.4,0.2,5.1c-2.9-0.2-3.9-0.6-5.9-2.8c-0.5-0.8-1.1-1.6-1.6-2.4c-0.6-0.8-1.2-1.7-1.8-2.5
			c-0.5-0.8-1-1.5-1.6-2.3c-3.9-4.9-9.3-6.9-15.4-7.8c-4.1-0.2-7.5,0.7-11.3,2.2c0,0-4.6,1.7-6.7,6.5c-0.4,0.8-0.4,0.8-0.9,1.6
			c-1.4,3-1.3,6-0.8,9.3c0,0,1.2,4.4,5,6.4c2.2,0.9,4.1,2,6.2,3.1c3.9,2.2,7.8,3.9,11.9,5.5c6.4,2.5,11.6,5.6,16.9,10
			c0.6,0.5,1.1,0.9,1.7,1.4c4.8,4.3,7.8,9.8,8.6,16.2c0.2,7.9-0.9,15.4-6.2,21.6l-1.8,2c-4.3,4.3-6.5,4.8-10.8,6.1
			c-12.4,2.8-25.4,1.4-37.5-2.3c-0.8-0.2-1.6-0.4-2.4-0.7c-2.2-0.9-3-1.5-4.3-3.5c-0.8-3.5-1.2-6.9-1.5-10.4
			C1028.2,925.4,1028.7,916.3,1028.7,916.3z"/>
		<path class="st0" d="M367.9,848.7c0.6,0,1.2,0,1.8,0c0.6,0,1.3,0,1.9,0c2.1,0,4.2,0,6.3,0c1.5,0,2.9,0,4.4,0c3.1,0,6.1,0,9.2,0
			c3.9,0,7.8,0,11.8,0c3,0,6,0,9,0c1.4,0,2.9,0,4.3,0c2,0,4,0,6,0c0.6,0,1.2,0,1.8,0c4.1,0,4.1,0,6,1.9c0.6,2.2,0.6,2.2,1.1,4.9
			c0.2,1,0.4,1.9,0.6,3c0.2,1,0.4,2,0.6,3.1c0.2,1,0.4,2.1,0.6,3.1c0.5,2.5,0.9,5.1,1.4,7.6c-5.4-1.8-8.3-7.9-11.1-12.6
			c-2.5-2.9-5.8-3.2-9.5-3.5c-1.1,0-2.3-0.1-3.4-0.1c-0.6,0-1.2,0-1.8,0c-1.9,0-3.8-0.1-5.7-0.1c-1.3,0-2.6-0.1-3.9-0.1
			c-3.2-0.1-6.4-0.2-9.5-0.2c-0.8,2.3-0.9,3.6-0.9,5.9c0,1,0,1,0,2.1c0,0.7,0,1.5,0,2.2c0,1.1,0,1.1,0,2.3c0,2.4,0,4.8,0,7.2
			c0,1.6,0,3.3,0,4.9c0,4,0,8,0,12c4.4,1.5,9.2,1,13.9,1c1.1,0,2.1,0,3.2,0c1.5,0,1.5,0,3,0c0.9,0,1.8,0,2.8,0c2.3,0,2.3,0,3.9-1.9
			c0.7-2.4,1.2-4.7,1.8-7.2c0.2-0.7,0.5-1.3,0.7-2c0.8-0.3,1.7-0.6,2.5-0.8c1.7,1.7,1.1,4.9,1.1,7.1c0,0.6,0,1.3,0.1,1.9
			c0.1,2,0.1,4,0.2,6c0,1.4,0.1,2.7,0.1,4.1c0.1,3.3,0.2,6.7,0.3,10c-4-1.5-4-1.5-5.3-3.4c-0.3-0.7-0.5-1.3-0.8-2
			c-0.3-0.7-0.5-1.3-0.8-2c-0.6-1.8-0.6-1.8-0.6-4.3H388c0.3,12.9,0.6,25.9,0.8,39.2c7.7,1.3,13.6,1.9,21.1,1.6c0.9,0,1.9,0,2.9-0.1
			c6.8-0.3,10.4-1.4,15.7-5.8c2.4-2.8,4.1-5.8,5.9-9c1.1-1.8,1.1-1.8,2.8-2.6c0.6,0.3,1.1,0.6,1.7,0.8c-0.4,4.9-1,9.4-2.5,14.2
			c-0.4,2-0.9,4-1.3,6c-0.4,1.5-0.4,1.5-1.2,2.4c-1.9,0.2-3.8,0.4-5.6,0.5c-1,0.1-2.1,0.2-3.1,0.2c-3.9,0.2-7.8-0.2-11.8-0.6
			c-4.6-0.3-9.2-0.3-13.8-0.3c-1,0-2,0-3,0c-10.9,0.1-21.9,0.5-32.8,0.9c-0.3-1.1-0.6-2.2-0.8-3.3l10-3.3c2.1-3.1,1.9-4.5,1.9-8.2
			c0-0.9,0-0.9,0-1.8c0-2,0-4,0-6c0-1.4,0-2.8,0-4.2c0-4-0.1-8-0.1-12c0-2.9-0.1-5.9-0.1-8.8c0-5.3-0.1-10.7-0.2-16
			c0-2.1,0-4.2-0.1-6.4c0-3-0.1-6-0.1-9c0-0.9,0-1.8,0-2.7c0-0.8,0-1.7,0-2.5c0-0.7,0-1.5,0-2.2c-0.4-2.3-1-3-2.8-4.4
			c-2.1-0.8-2.1-0.8-4.3-1.4c-0.8-0.2-1.5-0.4-2.3-0.6c-0.6-0.2-1.1-0.3-1.7-0.5c0-4.8,0.7-4.3,5-4.3L367.9,848.7z"/>
		<path class="st0" d="M722.5,848.7c0.8,0,0.8,0,1.5,0.1c11,0.6,21.7,0.8,32.7-0.1l1.9-0.1l-0.2,1.8c-0.3,0.8-0.6,1.7-0.8,2.5
			c-1.8,0.7-1.8,0.7-4.1,1.3c-3.6,0.8-3.6,0.8-5.9,3.8c-0.3,1.8-0.3,1.8-0.3,3.8c0,1.2,0,1.2-0.1,2.3c0,0.8,0,1.7,0,2.5
			c0,0.9,0,1.8,0,2.7c-0.1,2.9-0.1,5.7-0.1,8.6c0,2-0.1,3.9-0.1,5.9c-0.1,5.6-0.2,11.2-0.2,16.8c0,0.7,0,1.4,0,2.2
			c-0.5,17.7-0.5,17.7,0.9,35.4c2.1,2.1,4,2.5,6.8,3.4c2,1,2.3,2.1,3.2,4.2c-0.8,0-1.6,0-2.4,0c-3,0-5.9,0-8.9,0c-1.3,0-2.6,0-3.9,0
			c-1.8,0-3.7,0-5.5,0c-0.6,0-1.2,0-1.7,0c-3.1,0-3.1,0-5.9,0.9c-2.9,0.2-2.9,0.2-5.8,0c-0.6-0.8-1.1-1.7-1.7-2.5
			c3.6-2.6,6.5-2.9,10.8-3.3c0-10.5,0.1-20.9,0.1-31.5c0-4.9,0-9.8,0-14.6c0-4.7,0-9.4,0-14.1c0-1.8,0-3.6,0-5.4c0-2.5,0-5,0-7.5
			c0-0.7,0-1.5,0-2.2c0-3.6-0.1-6.6-1.9-9.8c-1.5-0.8-1.5-0.8-3.3-1c-2.6-0.4-3.6-0.8-5.9-2.3C721.9,850.9,722.2,849.8,722.5,848.7
			L722.5,848.7z"/>
	</g>
</g>
</svg>
